<svg xmlns="http://www.w3.org/2000/svg" xmlns:xlink="http://www.w3.org/1999/xlink" width="500" zoomAndPan="magnify" viewBox="0 0 375 374.999991" height="500" preserveAspectRatio="xMidYMid meet" version="1.0"><defs><g/><clipPath id="id1"><path d="M 50 58 L 318 58 L 318 325 L 50 325 Z M 50 58 " clip-rule="nonzero"/></clipPath><clipPath id="id2"><path d="M 188.445312 1.929688 L 334.148438 154.199219 L 140.148438 339.824219 L -5.550781 187.554688 Z M 188.445312 1.929688 " clip-rule="nonzero"/></clipPath><clipPath id="id3"><path d="M 188.445312 1.929688 L 374.074219 195.925781 L 180.074219 381.550781 L -5.550781 187.554688 Z M 188.445312 1.929688 " clip-rule="nonzero"/></clipPath><clipPath id="id4"><path d="M 243.648438 211.566406 L 257.148438 211.566406 L 257.148438 225.066406 L 243.648438 225.066406 Z M 243.648438 211.566406 " clip-rule="nonzero"/></clipPath></defs><rect x="-37.5" width="450" fill="#ffffff" y="-37.499999" height="449.999989" fill-opacity="1"/><rect x="-37.5" width="450" fill="#ffffff" y="-37.499999" height="449.999989" fill-opacity="1"/><rect x="-37.5" width="450" fill="#ffffff" y="-37.499999" height="449.999989" fill-opacity="1"/><g clip-path="url(#id1)"><g clip-path="url(#id2)"><g clip-path="url(#id3)"><path fill="#000000" d="M 245.46875 307.484375 C 234.742188 313.039062 223.203125 316.882812 211.429688 319.222656 C 201.792969 321.074219 192.011719 322.054688 182.21875 322.007812 C 180.914062 322.039062 179.613281 321.921875 178.3125 321.875 C 177.011719 321.804688 175.707031 321.777344 174.40625 321.675781 L 170.515625 321.320312 L 168.566406 321.140625 L 166.632812 320.878906 L 162.757812 320.359375 C 161.46875 320.15625 160.191406 319.902344 158.90625 319.679688 C 156.328125 319.28125 153.800781 318.652344 151.246094 318.105469 C 150.878906 318.027344 150.496094 317.941406 150.09375 317.855469 C 149.699219 317.746094 149.289062 317.632812 148.859375 317.519531 C 148.003906 317.28125 147.082031 317.027344 146.105469 316.757812 C 144.128906 316.261719 141.984375 315.492188 139.613281 314.710938 C 139.027344 314.507812 138.417969 314.324219 137.808594 314.09375 C 137.203125 313.859375 136.589844 313.617188 135.960938 313.371094 C 134.707031 312.878906 133.40625 312.367188 132.0625 311.839844 C 129.453125 310.625 126.609375 309.476562 123.792969 307.945312 C 112.3125 302.265625 99.96875 293.269531 89.496094 282.414062 C 79.113281 271.472656 70.671875 258.746094 65.5 247.027344 C 64.097656 244.144531 63.074219 241.253906 61.976562 238.589844 C 61.507812 237.226562 61.054688 235.90625 60.617188 234.632812 C 60.402344 233.992188 60.1875 233.367188 59.976562 232.753906 C 59.773438 232.136719 59.617188 231.519531 59.441406 230.921875 C 58.761719 228.523438 58.089844 226.34375 57.679688 224.347656 C 57.453125 223.359375 57.242188 222.425781 57.046875 221.5625 C 56.945312 221.128906 56.851562 220.714844 56.761719 220.3125 C 56.691406 219.910156 56.625 219.519531 56.5625 219.152344 C 54.777344 209.519531 53.859375 199.738281 53.972656 189.945312 C 54.199219 179.515625 55.703125 169.144531 58.097656 158.980469 C 60.953125 147.316406 65.304688 135.960938 71.324219 125.488281 C 77.222656 114.941406 84.847656 105.378906 93.535156 96.921875 C 102.367188 88.617188 112.257812 81.417969 123.054688 75.996094 C 133.78125 70.441406 145.316406 66.597656 157.09375 64.253906 C 166.726562 62.40625 176.507812 61.425781 186.300781 61.472656 C 187.605469 61.441406 188.90625 61.554688 190.210938 61.601562 C 191.511719 61.671875 192.816406 61.703125 194.113281 61.800781 L 198.007812 62.160156 L 199.953125 62.335938 L 201.890625 62.601562 L 205.765625 63.121094 C 207.050781 63.324219 208.328125 63.578125 209.613281 63.796875 C 212.191406 64.199219 214.722656 64.828125 217.273438 65.371094 C 217.640625 65.453125 218.023438 65.539062 218.425781 65.625 C 218.820312 65.734375 219.234375 65.84375 219.660156 65.960938 C 220.515625 66.195312 221.4375 66.449219 222.417969 66.722656 C 224.390625 67.21875 226.539062 67.988281 228.90625 68.765625 C 229.496094 68.96875 230.105469 69.15625 230.710938 69.386719 C 231.316406 69.621094 231.933594 69.863281 232.5625 70.109375 C 233.816406 70.601562 235.117188 71.113281 236.457031 71.640625 C 239.070312 72.851562 241.914062 74.003906 244.726562 75.53125 C 256.210938 81.214844 268.550781 90.210938 279.027344 101.066406 C 289.40625 112.007812 297.847656 124.734375 303.019531 136.453125 C 304.421875 139.335938 305.445312 142.222656 306.542969 144.890625 C 307.011719 146.25 307.464844 147.574219 307.902344 148.847656 C 308.121094 149.484375 308.335938 150.113281 308.542969 150.726562 C 308.746094 151.34375 308.902344 151.960938 309.082031 152.558594 C 309.757812 154.957031 310.429688 157.136719 310.839844 159.128906 C 311.066406 160.121094 311.277344 161.050781 311.476562 161.917969 C 311.574219 162.347656 311.667969 162.765625 311.757812 163.167969 C 311.828125 163.570312 311.894531 163.957031 311.960938 164.328125 C 313.746094 173.960938 314.660156 183.742188 314.546875 193.535156 C 314.324219 203.964844 312.816406 214.335938 310.421875 224.5 C 307.566406 236.164062 303.214844 247.519531 297.195312 257.992188 C 291.300781 268.535156 283.671875 278.101562 274.988281 286.558594 C 266.15625 294.863281 256.265625 302.058594 245.46875 307.484375 Z M 277.136719 288.675781 L 277.144531 288.667969 C 286.011719 280.03125 293.808594 270.265625 299.847656 259.492188 C 306.011719 248.796875 310.460938 237.183594 313.347656 225.261719 L 314.601562 219.652344 C 314.601562 219.652344 314.898438 218.097656 315.335938 215.765625 C 315.84375 213.445312 316.191406 210.296875 316.652344 207.167969 C 316.917969 204.015625 317.296875 200.875 317.335938 198.503906 C 317.441406 196.132812 317.507812 194.554688 317.507812 194.554688 C 317.507812 194.554688 317.519531 194.160156 317.523438 193.46875 C 317.523438 192.777344 317.53125 191.789062 317.535156 190.605469 C 317.609375 188.230469 317.417969 185.078125 317.292969 181.917969 C 317.179688 180.34375 317.015625 178.769531 316.890625 177.292969 C 316.820312 176.554688 316.757812 175.84375 316.695312 175.167969 C 316.601562 174.496094 316.511719 173.859375 316.429688 173.269531 C 316.105469 170.921875 315.886719 169.355469 315.886719 169.355469 C 315.886719 169.355469 315.855469 169 315.753906 168.46875 C 315.660156 167.941406 315.539062 167.234375 315.414062 166.527344 C 315.167969 165.113281 314.917969 163.699219 314.917969 163.699219 C 314.855469 163.320312 314.785156 162.925781 314.714844 162.511719 C 314.625 162.101562 314.53125 161.675781 314.429688 161.230469 C 314.230469 160.34375 314.015625 159.390625 313.785156 158.378906 C 313.371094 156.335938 312.6875 154.105469 311.996094 151.648438 C 311.816406 151.039062 311.652344 150.40625 311.449219 149.773438 C 311.234375 149.144531 311.015625 148.503906 310.796875 147.851562 C 310.347656 146.542969 309.886719 145.191406 309.410156 143.792969 C 308.289062 141.066406 307.242188 138.109375 305.808594 135.160156 C 300.523438 123.15625 291.886719 110.121094 281.257812 98.925781 C 270.546875 87.816406 257.902344 78.613281 246.144531 72.804688 C 243.261719 71.242188 240.351562 70.0625 237.675781 68.828125 C 236.300781 68.289062 234.972656 67.765625 233.683594 67.261719 C 233.042969 67.011719 232.410156 66.765625 231.792969 66.523438 C 231.171875 66.292969 230.546875 66.101562 229.941406 65.894531 C 227.519531 65.097656 225.320312 64.316406 223.300781 63.8125 C 222.296875 63.535156 221.355469 63.28125 220.476562 63.039062 C 220.039062 62.921875 219.617188 62.808594 219.210938 62.699219 C 218.800781 62.609375 218.40625 62.523438 218.03125 62.445312 C 218.03125 62.445312 216.632812 62.132812 215.230469 61.824219 C 214.527344 61.671875 213.828125 61.515625 213.304688 61.398438 C 212.78125 61.273438 212.425781 61.230469 212.425781 61.230469 C 212.425781 61.230469 210.871094 60.941406 208.539062 60.511719 C 207.953125 60.40625 207.324219 60.289062 206.65625 60.164062 C 205.984375 60.074219 205.273438 59.976562 204.539062 59.878906 C 203.070312 59.683594 201.507812 59.449219 199.9375 59.269531 C 196.785156 59.007812 193.644531 58.675781 191.269531 58.644531 C 190.085938 58.597656 189.097656 58.558594 188.40625 58.53125 C 187.71875 58.503906 187.320312 58.5 187.320312 58.5 C 187.320312 58.5 185.742188 58.496094 183.371094 58.496094 C 181 58.429688 177.84375 58.671875 174.683594 58.796875 C 171.539062 59.121094 168.378906 59.328125 166.035156 59.730469 C 163.6875 60.070312 162.121094 60.292969 162.121094 60.292969 L 156.464844 61.300781 C 144.421875 63.65625 132.625 67.59375 121.667969 73.277344 C 110.640625 78.835938 100.542969 86.195312 91.519531 94.675781 L 91.511719 94.679688 L 91.449219 94.742188 L 91.382812 94.804688 L 91.378906 94.8125 C 82.511719 103.449219 74.710938 113.214844 68.671875 123.984375 C 62.511719 134.683594 58.058594 146.292969 55.175781 158.21875 L 53.917969 163.828125 C 53.917969 163.828125 53.625 165.382812 53.183594 167.714844 C 52.679688 170.035156 52.332031 173.183594 51.871094 176.3125 C 51.605469 179.464844 51.222656 182.605469 51.183594 184.976562 C 51.082031 187.34375 51.011719 188.925781 51.011719 188.925781 C 51.011719 188.925781 51 189.320312 51 190.011719 C 50.996094 190.703125 50.988281 191.6875 50.984375 192.875 C 50.910156 195.246094 51.105469 198.402344 51.230469 201.5625 C 51.339844 203.136719 51.503906 204.707031 51.632812 206.183594 C 51.699219 206.921875 51.765625 207.636719 51.828125 208.3125 C 51.921875 208.984375 52.007812 209.621094 52.089844 210.207031 C 52.417969 212.558594 52.636719 214.121094 52.636719 214.121094 C 52.636719 214.121094 52.664062 214.480469 52.765625 215.007812 C 52.859375 215.539062 52.984375 216.246094 53.105469 216.953125 C 53.355469 218.367188 53.601562 219.78125 53.601562 219.78125 C 53.667969 220.15625 53.734375 220.554688 53.804688 220.96875 C 53.894531 221.378906 53.992188 221.804688 54.089844 222.25 C 54.289062 223.136719 54.507812 224.085938 54.734375 225.101562 C 55.152344 227.140625 55.835938 229.375 56.523438 231.832031 C 56.703125 232.441406 56.867188 233.074219 57.074219 233.707031 C 57.285156 234.335938 57.503906 234.976562 57.726562 235.628906 C 58.171875 236.933594 58.636719 238.289062 59.113281 239.683594 C 60.230469 242.414062 61.28125 245.371094 62.710938 248.320312 C 68 260.320312 76.636719 273.359375 87.261719 284.554688 C 97.976562 295.660156 110.621094 304.863281 122.378906 310.675781 C 125.261719 312.234375 128.171875 313.414062 130.847656 314.652344 C 132.21875 315.191406 133.550781 315.714844 134.835938 316.214844 C 135.480469 316.46875 136.109375 316.714844 136.730469 316.953125 C 137.351562 317.1875 137.976562 317.378906 138.578125 317.585938 C 141.003906 318.382812 143.203125 319.164062 145.222656 319.667969 C 146.226562 319.941406 147.167969 320.199219 148.042969 320.4375 C 148.480469 320.558594 148.90625 320.671875 149.308594 320.78125 C 149.722656 320.867188 150.113281 320.953125 150.488281 321.035156 C 150.488281 321.035156 151.890625 321.34375 153.292969 321.65625 C 153.992188 321.808594 154.691406 321.964844 155.21875 322.078125 C 155.738281 322.203125 156.097656 322.25 156.097656 322.25 C 156.097656 322.25 157.652344 322.535156 159.984375 322.964844 C 160.566406 323.074219 161.199219 323.191406 161.863281 323.3125 C 162.539062 323.40625 163.246094 323.503906 163.980469 323.601562 C 165.453125 323.792969 167.015625 324.027344 168.585938 324.210938 C 171.734375 324.472656 174.878906 324.804688 177.25 324.835938 C 178.433594 324.882812 179.421875 324.921875 180.113281 324.949219 C 180.804688 324.976562 181.199219 324.980469 181.199219 324.980469 C 181.199219 324.980469 182.78125 324.980469 185.148438 324.984375 C 187.523438 325.050781 190.675781 324.808594 193.835938 324.679688 C 196.984375 324.359375 200.144531 324.152344 202.484375 323.75 C 204.835938 323.410156 206.398438 323.183594 206.398438 323.183594 L 212.058594 322.179688 C 224.097656 319.824219 235.894531 315.886719 246.851562 310.203125 C 257.878906 304.644531 267.980469 297.28125 277 288.804688 L 277.007812 288.800781 L 277.074219 288.738281 L 277.136719 288.675781 " fill-opacity="1" fill-rule="nonzero"/></g></g></g><g fill="#000000" fill-opacity="1"><g transform="translate(164.754762, 320.867269)"><g><path d="M 11.390625 -0.890625 L 11.078125 1.484375 L 1.4375 0.1875 L 3.296875 -13.671875 L 12.765625 -12.40625 L 12.453125 -10.046875 L 5.6875 -10.953125 L 5.234375 -7.609375 L 11.0625 -6.828125 L 10.765625 -4.65625 L 4.9375 -5.4375 L 4.453125 -1.828125 Z M 11.390625 -0.890625 "/></g></g></g><g fill="#000000" fill-opacity="1"><g transform="translate(185.508671, 322.890021)"><g><path d="M 1.453125 -0.046875 L 1.03125 -14.03125 L 3.75 -14.109375 L 4.09375 -2.515625 L 11.234375 -2.734375 L 11.3125 -0.34375 Z M 1.453125 -0.046875 "/></g></g></g><g fill="#000000" fill-opacity="1"><g transform="translate(205.785883, 321.470427)"><g><path d="M 1.4375 -0.25 L -0.890625 -14.03125 L 1.78125 -14.484375 L 4.109375 -0.703125 Z M 1.4375 -0.25 "/></g></g></g><g fill="#000000" fill-opacity="1"><g transform="translate(220.044961, 318.685894)"><g><path d="M 0.875 -14.984375 L 3.171875 -15.71875 L 12.515625 -4.03125 L 9.859375 -3.1875 L 7.5625 -6.09375 L 2.90625 -4.59375 L 2.75 -0.890625 L 0.09375 -0.03125 Z M 6.5 -7.78125 L 2.96875 -12.390625 L 2.75 -6.5625 Z M 6.5 -7.78125 "/></g></g></g><g fill="#000000" fill-opacity="1"><g transform="translate(241.120416, 311.088843)"><g><path d="M -0.59375 -9.875 L 3.671875 -1.984375 L 1.28125 -0.6875 L -5.375 -12.984375 L -3.515625 -13.984375 L 7.25 -9.40625 L 2.90625 -17.453125 L 5.296875 -18.734375 L 11.9375 -6.453125 L 10 -5.40625 Z M -0.59375 -9.875 "/></g></g></g><g fill="#000000" fill-opacity="1"><g transform="translate(261.938664, 298.779386)"><g><path d="M -4.546875 -14.296875 L -2.6875 -15.796875 L 10.234375 -8.265625 L 8.0625 -6.515625 L 4.859375 -8.390625 L 1.0625 -5.328125 L 2.25 -1.8125 L 0.078125 -0.0625 Z M 3.28125 -9.59375 L -1.671875 -12.640625 L 0.203125 -7.109375 Z M 3.28125 -9.59375 "/></g></g></g><g fill="#000000" fill-opacity="1"><g transform="translate(278.5201, 284.199106)"><g/></g></g><g fill="#000000" fill-opacity="1"><g transform="translate(287.547611, 274.037621)"><g><path d="M 0.828125 -1.1875 L -10.625 -9.203125 L -7.078125 -14.28125 C -6.703125 -14.8125 -6.25 -15.222656 -5.71875 -15.515625 C -5.195312 -15.816406 -4.640625 -16 -4.046875 -16.0625 C -3.460938 -16.125 -2.875 -16.085938 -2.28125 -15.953125 C -1.695312 -15.816406 -1.175781 -15.585938 -0.71875 -15.265625 C 0.0195312 -14.742188 0.5625 -14.082031 0.90625 -13.28125 C 1.257812 -12.488281 1.347656 -11.679688 1.171875 -10.859375 L 7.3125 -10.453125 L 5.5625 -7.96875 L 0.09375 -8.3125 L -1.453125 -6.109375 L 2.390625 -3.421875 Z M -3.40625 -7.484375 L -1.453125 -10.265625 C -1.304688 -10.472656 -1.21875 -10.695312 -1.1875 -10.9375 C -1.15625 -11.1875 -1.175781 -11.429688 -1.25 -11.671875 C -1.332031 -11.921875 -1.460938 -12.160156 -1.640625 -12.390625 C -1.816406 -12.628906 -2.035156 -12.84375 -2.296875 -13.03125 C -2.554688 -13.21875 -2.828125 -13.34375 -3.109375 -13.40625 C -3.398438 -13.476562 -3.679688 -13.5 -3.953125 -13.46875 C -4.222656 -13.445312 -4.46875 -13.375 -4.6875 -13.25 C -4.914062 -13.132812 -5.097656 -12.976562 -5.234375 -12.78125 L -7.125 -10.078125 Z M -3.40625 -7.484375 "/></g></g></g><g fill="#000000" fill-opacity="1"><g transform="translate(299.678058, 255.377249)"><g><path d="M 3.15625 -6.71875 C 2.726562 -5.789062 2.160156 -5.023438 1.453125 -4.421875 C 0.742188 -3.828125 -0.03125 -3.394531 -0.875 -3.125 C -1.726562 -2.863281 -2.609375 -2.757812 -3.515625 -2.8125 C -4.429688 -2.863281 -5.300781 -3.078125 -6.125 -3.453125 C -6.96875 -3.835938 -7.703125 -4.363281 -8.328125 -5.03125 C -8.960938 -5.707031 -9.445312 -6.457031 -9.78125 -7.28125 C -10.125 -8.113281 -10.300781 -8.992188 -10.3125 -9.921875 C -10.320312 -10.847656 -10.125 -11.757812 -9.71875 -12.65625 C -9.300781 -13.570312 -8.726562 -14.320312 -8 -14.90625 C -7.28125 -15.5 -6.488281 -15.925781 -5.625 -16.1875 C -4.769531 -16.445312 -3.882812 -16.550781 -2.96875 -16.5 C -2.0625 -16.445312 -1.207031 -16.238281 -0.40625 -15.875 C 0.4375 -15.488281 1.171875 -14.960938 1.796875 -14.296875 C 2.421875 -13.628906 2.90625 -12.882812 3.25 -12.0625 C 3.59375 -11.238281 3.765625 -10.367188 3.765625 -9.453125 C 3.765625 -8.535156 3.5625 -7.625 3.15625 -6.71875 Z M -4.96875 -5.984375 C -4.414062 -5.734375 -3.84375 -5.570312 -3.25 -5.5 C -2.664062 -5.425781 -2.101562 -5.457031 -1.5625 -5.59375 C -1.019531 -5.726562 -0.523438 -5.972656 -0.078125 -6.328125 C 0.359375 -6.679688 0.710938 -7.148438 0.984375 -7.734375 C 1.253906 -8.328125 1.375 -8.910156 1.34375 -9.484375 C 1.3125 -10.066406 1.164062 -10.609375 0.90625 -11.109375 C 0.644531 -11.609375 0.296875 -12.054688 -0.140625 -12.453125 C -0.578125 -12.847656 -1.0625 -13.164062 -1.59375 -13.40625 C -2.132812 -13.65625 -2.703125 -13.804688 -3.296875 -13.859375 C -3.890625 -13.921875 -4.453125 -13.878906 -4.984375 -13.734375 C -5.523438 -13.597656 -6.019531 -13.351562 -6.46875 -13 C -6.914062 -12.65625 -7.269531 -12.195312 -7.53125 -11.625 C -7.800781 -11.03125 -7.914062 -10.441406 -7.875 -9.859375 C -7.84375 -9.273438 -7.695312 -8.734375 -7.4375 -8.234375 C -7.175781 -7.742188 -6.828125 -7.304688 -6.390625 -6.921875 C -5.960938 -6.535156 -5.488281 -6.222656 -4.96875 -5.984375 Z M -4.96875 -5.984375 "/></g></g></g><g fill="#000000" fill-opacity="1"><g transform="translate(308.705407, 233.215799)"><g><path d="M -2.578125 -1.453125 C -2.390625 -1.609375 -2.164062 -1.875 -1.90625 -2.25 C -1.644531 -2.625 -1.441406 -3.082031 -1.296875 -3.625 C -1.148438 -4.15625 -1.128906 -4.601562 -1.234375 -4.96875 C -1.335938 -5.332031 -1.554688 -5.648438 -1.890625 -5.921875 C -2.234375 -6.191406 -2.675781 -6.425781 -3.21875 -6.625 C -3.769531 -6.820312 -4.425781 -7.023438 -5.1875 -7.234375 L -12.0625 -9.0625 L -11.359375 -11.6875 L -4.484375 -9.859375 C -3.460938 -9.585938 -2.539062 -9.285156 -1.71875 -8.953125 C -0.90625 -8.617188 -0.25 -8.195312 0.25 -7.6875 C 0.75 -7.175781 1.078125 -6.546875 1.234375 -5.796875 C 1.398438 -5.046875 1.332031 -4.113281 1.03125 -3 C 0.726562 -1.863281 0.179688 -0.96875 -0.609375 -0.3125 Z M -2.578125 -1.453125 "/></g></g></g><g fill="#000000" fill-opacity="1"><g transform="translate(312.931155, 215.019578)"><g><path d="M -13.390625 -6.78125 L -13.15625 -9.1875 L 1.28125 -13.09375 L 1.015625 -10.3125 L -2.578125 -9.359375 L -3.0625 -4.5 L 0.28125 -2.875 L 0.015625 -0.09375 Z M -4.53125 -9.0625 L -10.1875 -7.671875 L -4.921875 -5.140625 Z M -4.53125 -9.0625 "/></g></g></g><g fill="#000000" fill-opacity="1"><g transform="translate(314.291094, 192.754932)"><g><path d="M -11.015625 -9.015625 C -11.097656 -8.910156 -11.207031 -8.726562 -11.34375 -8.46875 C -11.488281 -8.21875 -11.625 -7.914062 -11.75 -7.5625 C -11.875 -7.207031 -11.972656 -6.820312 -12.046875 -6.40625 C -12.117188 -5.988281 -12.140625 -5.570312 -12.109375 -5.15625 C -12.054688 -4.40625 -11.878906 -3.851562 -11.578125 -3.5 C -11.273438 -3.15625 -10.875 -3.003906 -10.375 -3.046875 C -10.082031 -3.066406 -9.847656 -3.148438 -9.671875 -3.296875 C -9.492188 -3.453125 -9.335938 -3.664062 -9.203125 -3.9375 C -9.078125 -4.207031 -8.972656 -4.546875 -8.890625 -4.953125 C -8.804688 -5.367188 -8.722656 -5.847656 -8.640625 -6.390625 C -8.503906 -7.078125 -8.347656 -7.703125 -8.171875 -8.265625 C -8.003906 -8.835938 -7.773438 -9.332031 -7.484375 -9.75 C -7.203125 -10.164062 -6.847656 -10.492188 -6.421875 -10.734375 C -6.003906 -10.972656 -5.472656 -11.113281 -4.828125 -11.15625 C -4.085938 -11.21875 -3.441406 -11.125 -2.890625 -10.875 C -2.335938 -10.632812 -1.878906 -10.285156 -1.515625 -9.828125 C -1.148438 -9.378906 -0.867188 -8.847656 -0.671875 -8.234375 C -0.472656 -7.628906 -0.351562 -6.988281 -0.3125 -6.3125 C -0.226562 -5.257812 -0.304688 -4.207031 -0.546875 -3.15625 C -0.785156 -2.113281 -1.164062 -1.164062 -1.6875 -0.3125 L -4.109375 -1.34375 C -3.992188 -1.46875 -3.851562 -1.691406 -3.6875 -2.015625 C -3.519531 -2.335938 -3.359375 -2.710938 -3.203125 -3.140625 C -3.046875 -3.566406 -2.921875 -4.039062 -2.828125 -4.5625 C -2.734375 -5.082031 -2.707031 -5.613281 -2.75 -6.15625 C -2.851562 -7.65625 -3.378906 -8.375 -4.328125 -8.3125 C -4.628906 -8.28125 -4.878906 -8.171875 -5.078125 -7.984375 C -5.285156 -7.796875 -5.453125 -7.535156 -5.578125 -7.203125 C -5.710938 -6.878906 -5.828125 -6.488281 -5.921875 -6.03125 C -6.023438 -5.582031 -6.132812 -5.078125 -6.25 -4.515625 C -6.394531 -3.828125 -6.554688 -3.234375 -6.734375 -2.734375 C -6.921875 -2.234375 -7.144531 -1.804688 -7.40625 -1.453125 C -7.675781 -1.109375 -8 -0.835938 -8.375 -0.640625 C -8.75 -0.441406 -9.203125 -0.328125 -9.734375 -0.296875 C -10.453125 -0.242188 -11.09375 -0.328125 -11.65625 -0.546875 C -12.21875 -0.773438 -12.703125 -1.101562 -13.109375 -1.53125 C -13.515625 -1.96875 -13.835938 -2.488281 -14.078125 -3.09375 C -14.316406 -3.695312 -14.460938 -4.351562 -14.515625 -5.0625 C -14.585938 -6.039062 -14.492188 -6.953125 -14.234375 -7.796875 C -13.984375 -8.640625 -13.675781 -9.390625 -13.3125 -10.046875 Z M -11.015625 -9.015625 "/></g></g></g><g fill="#000000" fill-opacity="1"><g transform="translate(102.111405, 223.832618)"><g><path d="M 62.003906 -18.046875 C 59.097656 -7.355469 47.378906 -3.847656 37.800781 -3.847656 C 23.945312 -4.277344 18.21875 -17.617188 17.191406 -28.992188 C 16.761719 -34.636719 16.761719 -40.453125 17.019531 -46.269531 C 22.066406 -45.15625 27.28125 -44.558594 32.585938 -44.558594 C 40.964844 -44.558594 49.347656 -45.925781 57.046875 -48.152344 C 58.242188 -48.40625 60.550781 -49.605469 60.210938 -51.144531 C 59.953125 -52.253906 58.753906 -52.511719 57.558594 -52.511719 C 56.960938 -52.511719 56.273438 -52.425781 55.847656 -52.339844 C 49.089844 -50.289062 41.820312 -49.175781 34.722656 -49.175781 C 28.566406 -49.175781 22.578125 -50.03125 17.191406 -51.914062 C 18.046875 -64.058594 18.558594 -75.519531 20.097656 -86.894531 C 26.597656 -87.835938 33.355469 -88.261719 40.027344 -88.261719 C 47.808594 -88.261719 55.589844 -87.664062 63.117188 -86.550781 C 65 -86.550781 66.964844 -86.808594 67.90625 -88.773438 C 68.675781 -90.484375 67.308594 -91.683594 65.683594 -91.9375 C 57.214844 -93.308594 48.664062 -93.480469 40.109375 -93.480469 C 32.328125 -93.480469 24.714844 -93.050781 17.105469 -91.855469 C 15.394531 -91.511719 13.257812 -90.742188 13 -88.773438 C 11.203125 -76.289062 8.550781 -39.597656 9.75 -26.941406 C 11.203125 -10.433594 20.269531 1.710938 37.375 1.710938 C 50.714844 1.710938 65.769531 -4.703125 69.53125 -18.644531 C 69.960938 -20.355469 67.90625 -21.039062 66.453125 -21.039062 C 64.484375 -21.039062 62.519531 -20.097656 62.003906 -18.046875 Z M 62.003906 -18.046875 "/></g></g></g><g fill="#000000" fill-opacity="1"><g transform="translate(166.950472, 223.832618)"><g><path d="M 108.445312 7.355469 C 107.933594 7.011719 107.332031 6.84375 106.734375 6.84375 C 105.539062 6.84375 104.167969 7.441406 103.230469 7.867188 C 98.4375 10.519531 93.734375 11.71875 89.117188 11.71875 C 66.195312 11.71875 46.953125 -17.960938 40.367188 -36.605469 C 42.507812 -36.261719 44.558594 -36.175781 46.527344 -36.175781 C 63.375 -36.175781 76.972656 -46.441406 77.65625 -63.546875 C 78.253906 -82.875 65.085938 -92.878906 47.296875 -93.90625 C 45.925781 -93.992188 44.644531 -93.992188 43.277344 -93.992188 C 30.960938 -93.992188 18.644531 -90.65625 7.183594 -86.292969 C 5.902344 -85.78125 4.363281 -84.328125 5.386719 -82.875 C 5.816406 -82.273438 6.671875 -82.019531 7.527344 -82.019531 C 8.550781 -82.019531 9.578125 -82.359375 10.261719 -82.617188 C 19.925781 -86.292969 30.277344 -89.117188 40.710938 -89.289062 C 55.503906 -89.03125 68.417969 -83.128906 69.960938 -67.648438 C 71.328125 -55.335938 65.683594 -43.019531 53.109375 -41.308594 C 51.914062 -41.136719 50.628906 -41.050781 49.433594 -41.050781 C 46.011719 -41.050781 42.589844 -41.652344 39.257812 -42.421875 C 39 -42.507812 38.65625 -42.507812 38.230469 -42.507812 C 36.089844 -42.507812 32.585938 -41.480469 33.269531 -39.257812 C 40.710938 -16.675781 58.414062 14.96875 85.269531 16.507812 C 85.953125 16.59375 86.722656 16.59375 87.40625 16.59375 C 94.589844 16.59375 101.519531 14.28125 107.933594 10.691406 C 109.214844 10.007812 109.898438 8.296875 108.445312 7.355469 Z M 22.921875 -78.855469 C 22.835938 -79.28125 22.152344 -79.539062 21.296875 -79.539062 C 18.988281 -79.539062 15.222656 -78.253906 15.566406 -76.886719 C 18.816406 -58.070312 19.328125 -38.570312 17.445312 -20.097656 C 16.761719 -13.34375 15.652344 -6.585938 13.769531 0 C 13.511719 0.597656 14.367188 0.855469 15.566406 0.855469 C 17.617188 0.855469 20.695312 0.0859375 21.039062 -1.199219 C 27.453125 -22.75 26.425781 -48.234375 24.203125 -69.617188 C 23.863281 -72.695312 23.519531 -75.773438 22.921875 -78.855469 Z M 22.921875 -78.855469 "/></g></g></g><g clip-path="url(#id4)"><path fill="#000000" d="M 250.398438 211.566406 C 246.671875 211.566406 243.648438 214.589844 243.648438 218.316406 C 243.648438 222.046875 246.671875 225.066406 250.398438 225.066406 C 254.128906 225.066406 257.148438 222.046875 257.148438 218.316406 C 257.148438 214.589844 254.128906 211.566406 250.398438 211.566406 " fill-opacity="1" fill-rule="nonzero"/></g></svg>